<?xml version="1.0" encoding="UTF-8"?>
<svg id="Layer_1" xmlns="http://www.w3.org/2000/svg" version="1.1" viewBox="0 0 292.1 291.1">
  <!-- Generator: Adobe Illustrator 30.6.0, SVG Export Plug-In . SVG Version: 2.1.4 Build 109)  -->
  <defs>
    <style>
      .st0 {
        fill: #17395c;
      }

      .st1 {
        fill: #ce882e;
      }
    </style>
  </defs>
  <g>
    <g>
      <path class="st0" d="M38,166.2c-10.8-36.7-12.3-76-5.7-114.3,34.9-11.1,69.9-22.3,104.8-33.4l-4.9,23.6-79.1,25.4c-1.3,10-2.1,21.6-1.8,34.3.5,19.2,3.3,35.9,6.6,49.2l-20,15.1Z"/>
      <path class="st0" d="M170.4,101.6l47.2-9-50.9-10.2,14.8-24.6-23.7,15.6c-3.9-24.5-7.8-48.9-11.6-73.4-3.9,24.4-7.8,48.8-11.7,73.2l-23.7-15.6,14.8,24.6-50.9,10.2,47.2,9c8.1-6,16.2-12,24.3-17.9,8.1,6,16.1,12.1,24.2,18.1Z"/>
    </g>
    <rect class="st0" x="125.8" y="186.5" width="17" height="17"/>
    <rect class="st0" x="149.6" y="186.5" width="17" height="17"/>
    <rect class="st0" x="125.8" y="163.2" width="16.9" height="16.9" transform="translate(-37.9 305.3) rotate(-89.8)"/>
    <rect class="st0" x="149.7" y="163.2" width="17" height="17"/>
    <g>
      <path class="st1" d="M292.1,204.4h-29.7s-33.3-25.4-33.3-25.4l-83-63.7L30.1,204.4H0c48.6-37.5,97.6-75.3,146.1-112.7l47.8,36.8v-17.4s23.4,0,23.4,0v35.4c.1,0,74.7,57.9,74.7,57.9Z"/>
      <path class="st1" d="M242,198.1c-11,22.3-26.2,41-44.4,57.7-15.8,14.1-33,25-51.5,35.2-41-21.3-75.7-51.6-96.4-92.8l19-14.6c8.1,17.6,18.7,32.4,31.8,45.9,13.5,13.8,28.5,24.9,45.7,34.5,13.3-8.1,26-16.4,37.4-27.2,16.5-15.2,29.8-32.2,39.4-53.3l19.1,14.6Z"/>
    </g>
  </g>
  <path class="st0" d="M254.8,166.2c10.8-36.7,12.3-76,5.7-114.3-34.9-11.1-69.9-22.3-104.8-33.4l4.9,23.6,79.1,25.4c1.3,10,2.1,21.6,1.8,34.3-.5,19.2-3.3,35.9-6.6,49.2l20,15.1Z"/>
</svg>